<svg width="115" height="115" viewBox="0 0 115 115" fill="none" xmlns="http://www.w3.org/2000/svg">
  <path fill-rule="evenodd" clip-rule="evenodd" d="M0 57.5V115H57.5H115V57.5V0H57.5H0V57.5Z"
    fill="#367C39" style="fill:#367C39;fill:color(display-p3 0.2118 0.4863 0.2235);fill-opacity:1;" />
  <path fill-rule="evenodd" clip-rule="evenodd"
    d="M28.7374 63.1743H25.1228C19.4846 63.1743 23.5808 50.8009 28.3276 50.8009H34.0384C34.9538 50.8009 36.5682 50.9749 37.3636 48.6349L38.5925 45H30.7613C26.5204 45 23.2193 46.5434 20.8339 49.1329C16.7134 53.5645 15.3161 60.4856 16.3039 63.7966C17.2436 66.8591 19.7978 68.8754 23.7975 68.9252L26.9059 68.9502H30.7373L31.6771 66.0374C32.3757 63.9709 30.8093 63.1743 28.7374 63.1743ZM72.7356 58.0458L73.9165 54.0872H61.3146C59.2183 54.0872 58.2786 54.6847 57.9171 55.9295L56.7362 59.8881H69.3385C71.4347 59.8881 72.3745 59.2906 72.7356 58.0458ZM54.857 65.0167L53.6762 68.9749H66.2781C68.3504 68.9749 69.3141 68.3778 69.6756 67.1329L70.8565 63.1743H58.2542C56.1823 63.1743 55.2425 63.7719 54.857 65.0167ZM75.6756 48.9833L76.8561 45.0251H64.2542C62.1579 45.0251 61.2182 45.6222 60.8567 46.8671L59.6758 50.8256H72.2781C74.3504 50.8256 75.2898 50.2281 75.6756 48.9833ZM56.6398 49.7802C56.1099 46.0955 54.2064 45.0251 49.58 45.0251H41.1466L36.2311 59.8881H39.3395C41.1946 59.8881 42.1344 59.9128 43.1225 57.1744L45.1704 50.8009H48.3028C50.9776 50.8009 50.375 54.2615 49.0258 57.6222C47.8209 60.5852 45.7246 63.1991 43.1945 63.1991H37.9658C35.8696 63.1991 34.9058 63.7966 34.5203 65.0414L33.2191 69H37.0501L40.8091 68.9749C44.1343 68.9502 46.8571 68.7014 50.0379 65.7385C53.411 62.5768 57.3148 54.4606 56.6398 49.7802ZM99 45H91.6991L84.8317 52.5434C84.0367 53.4148 83.2173 54.2862 82.4223 55.3069H82.3499L85.7714 45H79.8198L71.7962 68.9749H77.7475L80.3017 61.4315L82.9522 59.1162L85.0488 65.9379C85.6991 68.0541 86.3741 68.9749 87.8197 68.9749H92.3737L87.6993 55.5808L99 45Z"
    fill="white" style="fill:white;fill-opacity:1;" />
  <path fill-rule="evenodd" clip-rule="evenodd"
    d="M28.7374 63.1743H25.1228C19.4846 63.1743 23.5808 50.8009 28.3276 50.8009H34.0384C34.9538 50.8009 36.5682 50.9749 37.3636 48.6349L38.5925 45H30.7613C26.5204 45 23.2193 46.5434 20.8339 49.1329C16.7134 53.5645 15.3161 60.4856 16.3039 63.7966C17.2436 66.8591 19.7978 68.8754 23.7975 68.9252L26.9059 68.9502H30.7373L31.6771 66.0374C32.3757 63.9709 30.8093 63.1743 28.7374 63.1743ZM72.7356 58.0458L73.9165 54.0872H61.3146C59.2183 54.0872 58.2786 54.6847 57.9171 55.9295L56.7362 59.8881H69.3385C71.4347 59.8881 72.3745 59.2906 72.7356 58.0458ZM54.857 65.0167L53.6762 68.9749H66.2781C68.3504 68.9749 69.3141 68.3778 69.6756 67.1329L70.8565 63.1743H58.2542C56.1823 63.1743 55.2425 63.7719 54.857 65.0167ZM75.6756 48.9833L76.8561 45.0251H64.2542C62.1579 45.0251 61.2182 45.6222 60.8567 46.8671L59.6758 50.8256H72.2781C74.3504 50.8256 75.2898 50.2281 75.6756 48.9833ZM56.6398 49.7802C56.1099 46.0955 54.2064 45.0251 49.58 45.0251H41.1466L36.2311 59.8881H39.3395C41.1946 59.8881 42.1344 59.9128 43.1225 57.1744L45.1704 50.8009H48.3028C50.9776 50.8009 50.375 54.2615 49.0258 57.6222C47.8209 60.5852 45.7246 63.1991 43.1945 63.1991H37.9658C35.8696 63.1991 34.9058 63.7966 34.5203 65.0414L33.2191 69H37.0501L40.8091 68.9749C44.1343 68.9502 46.8571 68.7014 50.0379 65.7385C53.411 62.5768 57.3148 54.4606 56.6398 49.7802ZM99 45H91.6991L84.8317 52.5434C84.0367 53.4148 83.2173 54.2862 82.4223 55.3069H82.3499L85.7714 45H79.8198L71.7962 68.9749H77.7475L80.3017 61.4315L82.9522 59.1162L85.0488 65.9379C85.6991 68.0541 86.3741 68.9749 87.8197 68.9749H92.3737L87.6993 55.5808L99 45Z"
    fill="white" fill-opacity="0.2" style="fill:white;fill-opacity:0.2;" />
</svg>