<svg width="80" height="80" viewBox="0 0 80 80" fill="none" xmlns="http://www.w3.org/2000/svg">
<path fill-rule="evenodd" clip-rule="evenodd" d="M0 40V80H40H80V40V0H40H0V40Z" fill="#5B5D5B" style="fill:#5B5D5B;fill:color(display-p3 0.3569 0.3647 0.3569);fill-opacity:1;"/>
<path d="M42 40C42 42.3944 41.581 44.669 40.8028 46.7042C39.9648 48.7993 38.8275 50.5951 37.331 52.0916C35.8345 53.6479 34.0387 54.8451 31.9437 55.6831C29.8486 56.581 27.5141 57 25 57C22.4859 57 20.1514 56.581 18.0563 55.6831C15.9613 54.7852 14.1655 53.588 12.669 52.0916C11.1725 50.5951 10.0352 48.7394 9.19718 46.7042C8.35915 44.6092 8 42.3944 8 40C8 37.6056 8.41901 35.331 9.19718 33.2958C9.97535 31.2606 11.1725 29.4049 12.669 27.9085C14.1655 26.412 15.9613 25.2148 18.0563 24.3169C20.1514 23.419 22.4261 23 25 23C27.5739 23 29.8486 23.419 31.9437 24.3169C34.0387 25.2148 35.8345 26.412 37.331 27.9085C38.8275 29.4049 39.9648 31.2606 40.8028 33.2958C41.6408 35.331 42 37.6056 42 40ZM34.2183 40C34.2183 38.3239 33.9789 36.8873 33.5599 35.5704C33.1408 34.2535 32.5423 33.1162 31.7641 32.2183C30.9859 31.3204 30.0282 30.6021 28.8908 30.1232C27.7535 29.6444 26.4366 29.4049 25 29.4049C23.5634 29.4049 22.2465 29.6444 21.0493 30.1232C19.912 30.6021 18.9542 31.3204 18.1761 32.2183C17.3979 33.1162 16.7993 34.2535 16.3803 35.5704C15.9613 36.8873 15.7218 38.3838 15.7218 40C15.7218 41.6162 15.9613 43.1725 16.3803 44.4894C16.7993 45.8063 17.3979 46.9437 18.1761 47.8416C18.9542 48.7394 19.912 49.4577 21.0493 49.9366C22.1866 50.4155 23.5035 50.6549 25 50.6549C26.4965 50.6549 27.7535 50.4155 28.8908 49.9366C30.0282 49.4577 30.9859 48.7394 31.7641 47.8416C32.5423 46.9437 33.1408 45.8063 33.5599 44.4894C34.0387 43.1725 34.2183 41.6761 34.2183 40Z" fill="white" style="fill:white;fill-opacity:1;"/>
<path d="M72.4648 40C72.4648 42.3944 72.0458 44.669 71.2677 46.7042C70.4296 48.7993 69.2923 50.5951 67.7958 52.0916C66.2994 53.588 64.5036 54.8451 62.4085 55.6831C60.3134 56.581 57.9789 57 55.4648 57C52.9508 57 50.6163 56.581 48.5212 55.6831C46.4261 54.7852 44.6303 53.588 43.1339 52.0916C41.6374 50.5951 40.5001 48.7394 39.662 46.7042C38.824 44.6092 38.4648 42.3944 38.4648 40C38.4648 37.6056 38.8839 35.331 39.662 33.2958C40.4402 31.2606 41.6374 29.4049 43.1339 27.9085C44.6303 26.412 46.4261 25.2148 48.5212 24.3169C50.6163 23.419 52.8909 23 55.4648 23C58.0388 23 60.3134 23.419 62.4085 24.3169C64.5036 25.2148 66.2994 26.412 67.7958 27.9085C69.2923 29.4049 70.4296 31.2606 71.2677 33.2958C72.1057 35.331 72.4648 37.6056 72.4648 40ZM64.6832 40C64.6832 38.3239 64.4437 36.8873 64.0247 35.5704C63.6057 34.2535 63.0071 33.1162 62.2289 32.2183C61.4508 31.3204 60.493 30.6021 59.3557 30.1232C58.2184 29.6444 56.9015 29.4049 55.4648 29.4049C54.0282 29.4049 52.7113 29.6444 51.5141 30.1232C50.3768 30.6021 49.4191 31.3204 48.6409 32.2183C47.8627 33.1162 47.2641 34.2535 46.8451 35.5704C46.4261 36.8873 46.1867 38.3838 46.1867 40C46.1867 41.6162 46.4261 43.1725 46.8451 44.4894C47.2641 45.8063 47.8627 46.9437 48.6409 47.8416C49.4191 48.7394 50.3768 49.4577 51.5141 49.9366C52.6515 50.4155 53.9684 50.6549 55.4648 50.6549C56.9613 50.6549 58.2184 50.4155 59.3557 49.9366C60.493 49.4577 61.4508 48.7394 62.2289 47.8416C63.0071 46.9437 63.6057 45.8063 64.0247 44.4894C64.5036 43.1725 64.6832 41.6761 64.6832 40Z" fill="white" style="fill:white;fill-opacity:1;"/>
</svg>
