<svg width="216" height="216" viewBox="0 0 216 216" fill="none" xmlns="http://www.w3.org/2000/svg">
<circle cx="108" cy="108" r="108" fill="#EE3124"/>
<path d="M72 137.5C72 142.747 67.7467 147 62.5 147C57.2533 147 53 142.747 53 137.5C53 132.253 57.2533 128 62.5 128C67.7467 128 72 132.253 72 137.5Z" fill="white"/>
<path d="M37 137C37 140.314 34.3137 143 31 143C27.6863 143 25 140.314 25 137C25 133.686 27.6863 131 31 131C34.3137 131 37 133.686 37 137Z" fill="white"/>
<path d="M56 107C56 110.314 53.3137 113 50 113C46.6863 113 44 110.314 44 107C44 103.686 46.6863 101 50 101C53.3137 101 56 103.686 56 107Z" fill="white"/>
<path d="M72 76C72 79.3137 69.3137 82 66 82C62.6863 82 60 79.3137 60 76C60 72.6863 62.6863 70 66 70C69.3137 70 72 72.6863 72 76Z" fill="white"/>
<path d="M91 106.5C91 111.747 86.7467 116 81.5 116C76.2533 116 72 111.747 72 106.5C72 101.253 76.2533 97 81.5 97C86.7467 97 91 101.253 91 106.5Z" fill="white"/>
<path d="M110 75.5C110 80.7467 105.747 85 100.5 85C95.2533 85 91 80.7467 91 75.5C91 70.2533 95.2533 66 100.5 66C105.747 66 110 70.2533 110 75.5Z" fill="white"/>
<path d="M117 141C117 148.18 111.18 154 104 154C96.8203 154 91 148.18 91 141C91 133.82 96.8203 128 104 128C111.18 128 117 133.82 117 141Z" fill="white"/>
<path d="M135 109C135 116.18 129.18 122 122 122C114.82 122 109 116.18 109 109C109 101.82 114.82 96 122 96C129.18 96 135 101.82 135 109Z" fill="white"/>
<path d="M171 109C171 116.18 165.18 122 158 122C150.82 122 145 116.18 145 109C145 101.82 150.82 96 158 96C165.18 96 171 101.82 171 109Z" fill="white"/>
<path d="M155 76C155 83.1797 149.18 89 142 89C134.82 89 129 83.1797 129 76C129 68.8203 134.82 63 142 63C149.18 63 155 68.8203 155 76Z" fill="white"/>
<path d="M191 141C191 148.18 185.18 154 178 154C170.82 154 165 148.18 165 141C165 133.82 170.82 128 178 128C185.18 128 191 133.82 191 141Z" fill="white"/>
</svg>
