<svg width="80" height="80" viewBox="0 0 80 80" fill="none" xmlns="http://www.w3.org/2000/svg">
<path fill-rule="evenodd" clip-rule="evenodd" d="M0 40V80H40H80V40V0H40H0V40Z" fill="#62F67A" style="fill:#62F67A;fill:color(display-p3 0.3843 0.9647 0.4784);fill-opacity:1;"/>
<path fill-rule="evenodd" clip-rule="evenodd" d="M52.2279 19.0802C52.2279 21.5492 51.4781 23.8452 50.1911 25.7581H61.4176C66.8705 25.7581 71.2913 30.1253 71.2913 35.5124C71.2913 40.0996 68.0859 43.9474 63.7673 44.9886C63.014 45.1703 62.2272 45.2665 61.4176 45.2665H58.6837L76 65H49.9703L40 53.5952L30.0296 65H4L21.3165 45.2665H18.5823C17.7727 45.2665 16.9859 45.1703 16.2329 44.9886C11.9142 43.9474 8.70887 40.0996 8.70887 35.5124C8.70887 30.1253 13.1294 25.7581 18.5823 25.7581H29.8087C28.5219 23.8452 27.7722 21.5492 27.7722 19.0802C27.7722 12.4085 33.2469 7 40 7C46.7531 7 52.2279 12.4085 52.2279 19.0802Z" fill="black" style="fill:black;fill-opacity:1;"/>
<path fill-rule="evenodd" clip-rule="evenodd" d="M48.1228 19.096C48.1228 21.864 46.729 24.3076 44.6028 25.7676C43.2944 26.6659 41.7087 27.1919 39.9999 27.1919C38.2912 27.1919 36.7058 26.6659 35.3974 25.7676C33.2712 24.3076 31.8774 21.864 31.8774 19.096C31.8774 14.6247 35.514 11 39.9999 11C44.4859 11 48.1228 14.6247 48.1228 19.096ZM49.7705 41.2848H61.2091C64.4072 41.2848 67 38.7005 67 35.5128C67 32.3247 64.4072 29.7408 61.2091 29.7408H18.7911C15.5928 29.7408 13 32.3247 13 35.5128C13 38.7005 15.5928 41.2848 18.7911 41.2848H30.2297L13.082 61H28.3025L39.9999 47.5003L51.6976 61H66.9181L49.7705 41.2848Z" fill="white" style="fill:white;fill-opacity:1;"/>
</svg>
