<svg width="120" height="120" viewBox="0 0 120 120" fill="none" xmlns="http://www.w3.org/2000/svg">
  <path fill-rule="evenodd" clip-rule="evenodd" d="M0 60V120H60H120V60V0H60H0V60Z" fill="black"
    style="fill:black;fill-opacity:1;" />
  <path
    d="M13.321 50.9846H9.24847C9.16943 50.9846 9.10547 51.05 9.10547 51.1308V66.15C9.48938 67.8115 10.7766 69.1154 12.4063 69.4962H13.321C13.4 69.4962 13.464 69.4308 13.464 69.35V51.1308C13.464 51.05 13.4 50.9846 13.321 50.9846ZM26.5998 69.25L18.2855 59.8808L25.5497 51.2269C25.6287 51.1308 25.5647 50.9846 25.4405 50.9846H20.5513C20.5099 50.9846 20.4685 51.0039 20.4421 51.0385L13.4677 59.6115L13.2833 59.8385C13.257 59.8731 13.2156 59.8923 13.1742 59.8923H13.1553C13.0311 59.8923 12.9634 60.0423 13.0462 60.1346L13.4527 60.6077L13.4677 60.6231L17.7736 65.6L21.1008 69.4462C21.1272 69.4769 21.1648 69.4962 21.2062 69.4962H26.4944C26.6186 69.4962 26.6826 69.3462 26.5998 69.25Z"
    fill="#F3F6F0" style="fill:#F3F6F0;fill:color(display-p3 0.9529 0.9647 0.9412);fill-opacity:1;" />
  <path
    d="M43.1916 57.2693C42.3711 58.8732 40.8317 60.0309 39.0137 60.2924C39.0062 61.3886 38.7841 62.3616 38.3438 63.2155C37.8959 64.0886 37.2786 64.7693 36.4919 65.2616C35.709 65.7539 34.7907 66.0001 33.7444 66.0001C32.698 66.0001 31.8022 65.7539 31.008 65.2616C30.2138 64.7693 29.5928 64.0886 29.1449 63.2155C28.697 62.3424 28.475 61.3463 28.475 60.227C28.475 59.1078 28.697 58.1116 29.1449 57.2501C29.5928 56.3886 30.2138 55.7078 31.008 55.2193C31.4973 54.9155 32.0356 54.7039 32.6152 54.5886C32.6265 53.027 33.2475 51.6116 34.2525 50.5809C34.0831 50.5732 33.9137 50.5693 33.7444 50.5693C32.3103 50.5693 30.993 50.8116 29.7923 51.2963C28.5917 51.777 27.5528 52.4539 26.6646 53.3155C25.7763 54.177 25.095 55.1963 24.6132 56.3693C24.1315 57.5424 23.8906 58.8309 23.8906 60.227C23.8906 61.6232 24.1315 62.9155 24.6132 64.0963C25.095 65.277 25.7801 66.3001 26.6646 67.1616C27.5528 68.0232 28.5954 68.7001 29.7923 69.1809C30.9892 69.6616 32.3103 69.9078 33.7444 69.9078C35.1784 69.9078 36.4995 69.6655 37.6964 69.1809C38.8933 68.7001 39.9396 68.0232 40.8241 67.1616C41.7086 66.3001 42.3974 65.277 42.8754 64.0963C43.3572 62.9155 43.598 61.6232 43.598 60.227C43.598 59.177 43.4626 58.1924 43.1916 57.2693ZM40.8241 53.3155C39.9358 52.4539 38.8933 51.777 37.6964 51.2963C37.1356 51.0693 36.5446 50.8963 35.9311 50.777C34.7003 51.5463 33.8686 52.9116 33.8196 54.4809C34.8359 54.4924 35.7279 54.7386 36.4919 55.2193C37.2786 55.7116 37.8959 56.3886 38.3438 57.2501C38.6298 57.8039 38.8255 58.4078 38.9272 59.0655C40.7112 58.7732 42.1339 57.3886 42.5216 55.6039C42.0775 54.7463 41.5129 53.9847 40.8241 53.3155Z"
    fill="#C8E633" style="fill:#C8E633;fill:color(display-p3 0.7843 0.9020 0.2000);fill-opacity:1;" />
  <path
    d="M49.192 50.9846H45.1196C45.0405 50.9846 44.9766 51.05 44.9766 51.1308V69.35C44.9766 69.4308 45.0405 69.4962 45.1196 69.4962H49.192C49.2711 69.4962 49.3351 69.4308 49.3351 69.35V51.1308C49.3351 51.05 49.2711 50.9846 49.192 50.9846ZM61.5976 58.1808H49.3125C49.1845 58.1808 49.0829 58.2462 49.0829 58.3269V61.7615C49.0829 61.8423 49.1845 61.9077 49.3125 61.9077H61.5976C61.7256 61.9077 61.831 61.8423 61.831 61.7615V58.3269C61.831 58.2462 61.7256 58.1808 61.5976 58.1808ZM63.8221 50.9846H59.7496C59.6705 50.9846 59.6066 51.05 59.6066 51.1308V69.35C59.6066 69.4308 59.6705 69.4962 59.7496 69.4962H63.8221C63.9011 69.4962 63.9651 69.4308 63.9651 69.35V51.1308C63.9651 51.05 63.9011 50.9846 63.8221 50.9846Z"
    fill="#F3F6F0" style="fill:#F3F6F0;fill:color(display-p3 0.9529 0.9647 0.9412);fill-opacity:1;" />
  <path
    d="M77.9948 50.9846H65.8188C65.7398 50.9846 65.6758 51.05 65.6758 51.1308V69.35C65.6758 69.4308 65.7398 69.4962 65.8188 69.4962H69.8913C69.9703 69.4962 70.0343 69.4308 70.0343 69.35V54.7385H77.9986C78.0776 54.7385 78.1416 54.6731 78.1416 54.5923V51.1308C78.1416 51.05 78.0776 50.9846 77.9986 50.9846"
    fill="#F3F6F0" style="fill:#F3F6F0;fill:color(display-p3 0.9529 0.9647 0.9412);fill-opacity:1;" />
  <path
    d="M93.0887 53.8192C92.5129 52.9308 91.7112 52.2346 90.6799 51.7346C89.6486 51.2346 88.4592 50.9846 87.108 50.9846H79.6782C79.5991 50.9846 79.5352 51.05 79.5352 51.1308V69.35C79.5352 69.4308 79.5991 69.4962 79.6782 69.4962H83.7469C83.8259 69.4962 83.8899 69.4308 83.8899 69.35V62.8923H87.108C88.4592 62.8923 89.6486 62.6423 90.6799 62.1423C91.7112 61.6423 92.5129 60.9423 93.0887 60.0462C93.6646 59.15 93.9507 58.1154 93.9507 56.9385C93.9507 55.7615 93.6646 54.7077 93.0887 53.8192ZM88.8808 58.5846C88.4404 58.9885 87.8495 59.1923 87.108 59.1923H83.8899V54.8346C83.8899 54.7539 83.9539 54.6885 84.0329 54.6885H87.108C87.8495 54.6885 88.4442 54.8923 88.8808 55.2962C89.3211 55.7 89.5394 56.25 89.5394 56.9385C89.5394 57.6269 89.3211 58.1769 88.8808 58.5846Z"
    fill="#F3F6F0" style="fill:#F3F6F0;fill:color(display-p3 0.9529 0.9647 0.9412);fill-opacity:1;" />
  <path
    d="M103.698 63.2654L102.339 60.3385L98.0409 51.0692C98.0184 51.0192 97.9657 50.9846 97.9092 50.9846H93.7953C93.6899 50.9846 93.6222 51.0962 93.6674 51.1962L100.183 64.6115L100.487 65.2385C100.525 65.3154 100.619 65.3423 100.691 65.2962L103.638 63.4538C103.702 63.4154 103.724 63.3346 103.694 63.2654M110.642 50.9846H106.528C106.472 50.9846 106.419 51.0154 106.397 51.0692L102.335 60.3385L101.443 62.3731C101.071 63.2346 100.706 63.9154 100.341 64.4077C100.288 64.4769 100.235 64.5462 100.183 64.6115C99.8626 65 99.5126 65.2808 99.1362 65.4577C98.6958 65.6654 98.1764 65.7692 97.5667 65.7692H94.5895C94.0513 65.8692 93.5469 66.0692 93.0953 66.35C92.0677 66.9885 91.3187 68.0462 91.0703 69.2923V69.35C91.0703 69.4308 91.1343 69.4962 91.2133 69.4962H97.8678C98.5302 69.4962 99.14 69.4308 99.7008 69.2962C99.9718 69.2346 100.231 69.1538 100.48 69.0577C101.24 68.7654 101.91 68.3192 102.494 67.7231C103.077 67.1269 103.589 66.3731 104.025 65.4577L110.766 51.1962C110.812 51.1 110.744 50.9846 110.639 50.9846"
    fill="#F3F6F0" style="fill:#F3F6F0;fill:color(display-p3 0.9529 0.9647 0.9412);fill-opacity:1;" />
  <path
    d="M42.6277 54.6191C42.6277 54.9576 42.5901 55.2845 42.5223 55.5999C42.1346 57.3845 40.7081 58.7691 38.9278 59.0614C38.6982 59.0999 38.4649 59.1191 38.224 59.1191C35.7926 59.1191 33.8203 57.1038 33.8203 54.6191C33.8203 54.573 33.8203 54.5268 33.8203 54.4807C33.8655 52.9114 34.701 51.5422 35.9318 50.7768C36.598 50.3614 37.3847 50.1191 38.224 50.1191C40.6592 50.1191 42.6277 52.1345 42.6277 54.6191Z"
    fill="#6EA345" style="fill:#6EA345;fill:color(display-p3 0.4314 0.6392 0.2706);fill-opacity:1;" />
  <path
    d="M42.6277 54.6191C42.6277 54.9576 42.5901 55.2845 42.5223 55.5999C42.1346 57.3845 40.7081 58.7691 38.9278 59.0614C38.6982 59.0999 38.4649 59.1191 38.224 59.1191C35.7926 59.1191 33.8203 57.1038 33.8203 54.6191C33.8203 54.573 33.8203 54.5268 33.8203 54.4807C33.8655 52.9114 34.701 51.5422 35.9318 50.7768C36.598 50.3614 37.3847 50.1191 38.224 50.1191C40.6592 50.1191 42.6277 52.1345 42.6277 54.6191Z"
    fill="#C8E633" style="fill:#C8E633;fill:color(display-p3 0.7843 0.9020 0.2000);fill-opacity:1;" />
</svg>