<svg width="100" height="100" viewBox="0 0 100 100" fill="none" xmlns="http://www.w3.org/2000/svg">
  <path fill-rule="evenodd" clip-rule="evenodd" d="M0 50V100H50H100V50V0H50H0V50Z" fill="#72AC44"
    style="fill:#72AC44;fill:color(display-p3 0.4471 0.6745 0.2667);fill-opacity:1;" />
  <mask id="mask0_3061_32505" style="mask-type:luminance" maskUnits="userSpaceOnUse" x="14" y="22"
    width="73" height="55">
    <path d="M14 21.9999H86.644V77H14V21.9999Z" fill="white" style="fill:white;fill-opacity:1;" />
  </mask>
  <g mask="url(#mask0_3061_32505)">
    <path
      d="M57.407 68.6799L52.8792 61.1372L48.4452 68.6799H43.137L49.9565 57.319L43.0059 46.7718H48.5514L53.0042 53.8137L57.2509 46.7718H62.5591L55.7207 57.6633L62.7465 68.6799H57.407Z"
      fill="white" style="fill:white;fill-opacity:1;" />
    <path
      d="M80.0004 61.2332C80.0004 66.0529 76.3781 69.0576 71.6319 69.0576C67.4477 69.0576 63.9255 66.7415 63.582 61.7025H68.1098C68.422 63.8934 70.1706 64.8324 72.0755 64.8324C74.4485 64.8324 75.4726 63.2362 75.4726 61.1706C75.4726 59.0111 73.8801 57.6653 71.6632 57.6653C69.8209 57.6653 68.6032 58.5415 68.041 59.4805H63.7132L65.2089 46.7738H79.4431L78.9684 51.0302H68.7857L68.3814 55.235C68.3814 55.235 69.4508 53.9722 72.6921 53.9722C76.5968 53.9722 80.0004 56.5996 80.0004 61.2332Z"
      fill="white" style="fill:white;fill-opacity:1;" />
    <path
      d="M63.9859 44.2157C61.5808 34.6916 53.9511 28 38.1172 28H19L21.5953 45.8273C23.5473 61.9133 29.6032 67.0882 40.32 68.9941C40.3698 69.0019 40.7092 69.0508 40.7139 68.6475C40.7153 68.502 40.6252 68.3771 40.5005 68.3234C33.257 65.2251 32.4302 55.0636 30.8829 44.8673L29.6858 36.7412H40.5986C50.66 36.7412 58.4282 36.58 63.3462 44.4704C63.4192 44.5811 63.5328 44.6634 63.6683 44.6634C63.8582 44.6634 64 44.5067 64 44.3138C64 44.279 63.9953 44.2458 63.9859 44.2157Z"
      fill="white" style="fill:white;fill-opacity:1;" />
  </g>
</svg>