<svg width="20" height="20" viewBox="0 0 20 20" fill="none" xmlns="http://www.w3.org/2000/svg">
<path fill-rule="evenodd" clip-rule="evenodd" d="M10.0013 18.3335C14.6037 18.3335 18.3346 14.6025 18.3346 10.0002C18.3346 5.39779 14.6037 1.66683 10.0013 1.66683C5.39893 1.66683 1.66797 5.39779 1.66797 10.0002C1.66797 14.6025 5.39893 18.3335 10.0013 18.3335ZM13.8962 8.94917C14.2363 8.63901 14.2605 8.11193 13.9503 7.7719C13.6401 7.43187 13.1131 7.40766 12.773 7.71782L8.76674 11.3722L7.22956 9.97007C6.88954 9.65991 6.36245 9.68413 6.05229 10.0242C5.74213 10.3642 5.76635 10.8913 6.10637 11.2014L8.20514 13.1158C8.5233 13.406 9.01018 13.406 9.32833 13.1158L13.8962 8.94917Z" fill="#292929"/>
</svg>
