<svg width="80" height="80" viewBox="0 0 80 80" fill="none" xmlns="http://www.w3.org/2000/svg">
  <path fill-rule="evenodd" clip-rule="evenodd" d="M0 40V80H40H80V40V0H40H0V40Z" fill="black"
    style="fill:black;fill-opacity:1;" />
  <path fill-rule="evenodd" clip-rule="evenodd" d="M8 40V48H22H36V40V32H22H8V40Z" fill="white"
    style="fill:white;fill-opacity:1;" />
  <path
    d="M36.5984 32L38.2797 40.2054L36.5984 48.005H8V32H36.5984ZM12.1944 34.6822H9.83723V40.823C9.83723 43.9464 11.2585 45.5169 14.101 45.5169C16.9551 45.5169 18.4105 43.9924 18.4832 40.9597L18.4861 40.7172V34.6822H16.1289V40.9642C16.1289 42.6229 15.4876 43.4523 14.1877 43.4523C12.9044 43.4523 12.2461 42.6529 12.1974 41.054L12.1944 40.8583V34.6822ZM23.5991 34.4705C23.0445 34.4705 22.5245 34.5234 22.0219 34.6469C21.5193 34.7704 21.0859 34.9469 20.7046 35.2116C20.3233 35.4763 20.0287 35.7939 19.8033 36.1998C19.578 36.6056 19.474 37.0821 19.474 37.6291C19.474 38.3349 19.682 38.9526 20.0807 39.4466C20.4966 39.9407 21.1033 40.3642 21.9179 40.7172C22.2472 40.8407 22.5419 40.9819 22.8192 41.1054C23.0965 41.2465 23.3218 41.3701 23.5298 41.5112C23.7378 41.6524 23.8938 41.8112 24.0151 41.97C24.1364 42.1465 24.1884 42.323 24.1884 42.5347C24.1884 42.6759 24.1538 42.8347 24.0844 42.9582C24.0151 43.0817 23.9111 43.2053 23.7551 43.2935C23.5991 43.3994 23.4258 43.47 23.2005 43.5229C22.9752 43.5758 22.7152 43.6111 22.4205 43.6111C21.9179 43.6111 21.4153 43.5229 20.9126 43.3464C20.4818 43.1952 20.0764 42.9791 19.7074 42.6871L19.526 42.5347V44.9169C19.9073 45.111 20.358 45.2699 20.8953 45.3228C21.4153 45.411 21.9699 45.464 22.5419 45.464C23.0965 45.464 23.6338 45.4287 24.1364 45.3051C24.6391 45.1816 25.0724 45.0052 25.4537 44.7581C25.835 44.4934 26.1297 44.1758 26.355 43.7699C26.5803 43.3641 26.6843 42.87 26.6843 42.27C26.6843 41.8465 26.615 41.4583 26.4936 41.1407C26.355 40.823 26.1817 40.5231 25.939 40.276C25.7137 40.0113 25.419 39.7819 25.0897 39.5878C24.7604 39.3937 24.3791 39.1996 23.9631 39.0231C23.6511 38.8996 23.3738 38.7761 23.1312 38.6526C22.8885 38.529 22.6805 38.4055 22.5072 38.282C22.3339 38.1585 22.1952 38.0173 22.1086 37.8761C22.0219 37.735 21.9699 37.5762 21.9699 37.3997C21.9699 37.2409 22.0046 37.0821 22.0912 36.9585C22.1779 36.835 22.2819 36.7115 22.4379 36.6233C22.5939 36.535 22.7672 36.4645 22.9925 36.4115C23.2178 36.3586 23.4605 36.3409 23.7205 36.3409C23.9285 36.3409 24.1364 36.3586 24.3444 36.3939C24.5697 36.4292 24.7777 36.4821 25.0031 36.535C25.2284 36.588 25.4364 36.6762 25.6444 36.7644C25.783 36.835 25.914 36.9056 26.0372 36.9814L26.2163 37.0997V34.8763C25.8697 34.7528 25.471 34.6469 25.0551 34.5763C24.6217 34.5057 24.1364 34.4705 23.5991 34.4705ZM33.6866 34.6822H27.6549V45.3228H33.9292L33.9119 43.3817H29.9948V40.9466H33.4093V39.0055H29.9948V36.6409H33.6866V34.6822Z"
    fill="#A3CA00" style="fill:#A3CA00;fill:color(display-p3 0.6392 0.7922 0.0000);fill-opacity:1;" />
  <path d="M46.87 36.7487H43.8168V45.126H41.4026V36.7487H38.3672V34.8625H46.8877L46.87 36.7487Z"
    fill="white" style="fill:white;fill-opacity:1;" />
  <path
    d="M53.9895 45.126H47.5636V34.8625H53.741V36.7487H49.9777V39.0257H53.4747V40.8949H49.9777V43.2398H53.9895V45.126Z"
    fill="white" style="fill:white;fill-opacity:1;" />
  <path
    d="M62.6155 44.7692C61.8344 45.126 60.8049 45.313 59.5445 45.313C57.8937 45.313 56.6156 44.8542 55.657 43.9196C54.7162 43.002 54.2369 41.7615 54.2369 40.2152C54.2369 38.5669 54.7695 37.2415 55.8168 36.222C56.8819 35.2024 58.2487 34.6926 59.935 34.6926C60.9824 34.6926 61.8699 34.8116 62.58 35.0665V37.2925C61.8699 36.8847 61.0534 36.6808 60.1303 36.6808C59.1185 36.6808 58.3197 36.9866 57.6984 37.5814C57.0771 38.1931 56.7753 39.0087 56.7753 40.0453C56.7753 41.0308 57.0594 41.8295 57.6452 42.4242C58.2309 43.019 59.012 43.3078 60.0061 43.3078C60.9469 43.3078 61.8167 43.0869 62.5977 42.6451V44.7692H62.6155Z"
    fill="white" style="fill:white;fill-opacity:1;" />
  <path
    d="M72.9991 45.126H70.5849V40.9458H66.1472V45.126H63.733V34.8625H66.1472V38.9577H70.5849V34.8625H72.9991V45.126Z"
    fill="white" style="fill:white;fill-opacity:1;" />
</svg>