<svg width="130" height="130" viewBox="0 0 130 130" fill="none" xmlns="http://www.w3.org/2000/svg">
  <path fill-rule="evenodd" clip-rule="evenodd" d="M0 65V130H65H130V65V0H65H0V65Z" fill="#EA333D"
    style="fill:#EA333D;fill:color(display-p3 0.9176 0.2000 0.2392);fill-opacity:1;" />
  <path d="M81 25V29.3883H90.3863V47H95.6328V29.3883H105V25H81Z" fill="white"
    style="fill:white;fill-opacity:1;" />
  <path
    d="M46.4415 25L39.4999 39.5497L32.5778 25H25V47H30.3218V31.2606L37.0897 44.562H41.9295L48.6974 31.2606V47H54V25H46.4415Z"
    fill="white" style="fill:white;fill-opacity:1;" />
  <path
    d="M99.7495 97.5109C99.6158 98.3513 99.2721 99.0423 98.7184 99.5653C98.2029 100.051 97.4964 100.406 96.6181 100.611C95.7589 100.798 94.4799 100.91 93.1433 100.91C91.7495 100.91 90.5275 100.742 89.4773 100.387C88.4654 100.051 87.6634 99.4532 87.1097 98.6315C86.5369 97.8097 86.2505 96.6147 86.2505 95.0645V92.9168C86.2505 91.3854 86.5369 90.1901 87.1097 89.3497C87.6825 88.5279 88.4654 87.9305 89.4773 87.5943C90.5084 87.2395 91.7495 87.0714 93.1433 87.0714C94.4799 87.0714 95.7589 87.1834 96.6181 87.3702C97.4964 87.5756 98.2029 87.9116 98.7184 88.4159C99.2721 88.9388 99.6158 89.6298 99.7495 90.4702H105C104.847 88.7333 104.256 87.2581 103.205 86.0629C102.251 84.9797 100.914 84.1953 99.253 83.7097C97.6492 83.2428 95.5298 83 93.1433 83C90.623 83 88.4463 83.3548 86.6515 84.0459C84.8378 84.7556 83.4249 85.9321 82.4511 87.557C81.5155 89.1069 81.0382 91.1986 81 93.7385V93.9813L81.2864 94L81 94.0187V94.0374V94.2615C81.0382 96.8014 81.5155 98.8929 82.4511 100.443C83.4249 102.068 84.8378 103.244 86.6515 103.954C88.4463 104.645 90.623 105 93.1433 105C95.5298 105 97.6492 104.757 99.253 104.29C100.914 103.805 102.232 103.02 103.205 101.937C104.256 100.761 104.866 99.2664 105 97.5296H99.7495V97.5109Z"
    fill="white" style="fill:white;fill-opacity:1;" />
</svg>