<svg width="24" height="24" viewBox="0 0 24 24" fill="none" xmlns="http://www.w3.org/2000/svg">
<path fill-rule="evenodd" clip-rule="evenodd" d="M6.85714 0C3.07005 0 0 3.07005 0 6.85714V17.1429C0 20.93 3.07005 24 6.85714 24H17.1429C20.93 24 24 20.93 24 17.1429V6.85714C24 3.07005 20.93 0 17.1429 0H6.85714ZM12.6124 16.2857C7.92679 16.2857 5.25422 13.0682 5.14286 7.71429H7.48996C7.56706 11.6439 9.29736 13.3085 10.6679 13.6517V7.71429H12.8781V11.1034C14.2315 10.9575 15.6533 9.41313 16.133 7.71429H18.3431C17.9748 9.80781 16.4329 11.3522 15.3364 11.9871C16.4329 12.5019 18.189 13.849 18.8571 16.2857H16.4243C15.9018 14.6555 14.5998 13.3943 12.8781 13.2227V16.2857H12.6124Z" fill="#F7F7F5"/>
</svg>
