<svg width="28" height="28" viewBox="0 0 28 28" fill="none" xmlns="http://www.w3.org/2000/svg">
  <path fill-rule="evenodd" clip-rule="evenodd"
    d="M8.76031 15.7516C9.91072 16.1134 10.5243 15.7114 10.5243 15.7114C10.5243 15.7114 10.657 15.6201 10.8932 15.4563C11.0927 15.318 11.366 15.1282 11.6956 14.8982C11.7067 14.8904 11.7178 14.8827 11.729 14.8749C12.11 14.609 12.5637 14.2911 13.0642 13.9383C13.7989 13.4205 14.6341 12.8276 15.4874 12.2133C15.6349 12.1071 15.7831 12.0002 15.9313 11.893C16.0929 11.7778 16.2377 11.6803 16.3669 11.5986C16.4441 11.5499 16.5158 11.5068 16.5822 11.4689C16.5906 11.4641 16.599 11.4594 16.6073 11.4547C16.7252 11.3886 16.8261 11.3394 16.9119 11.3049C17.3913 11.1122 17.3976 11.3767 17.2444 11.6848C17.1665 11.8414 17.0474 12.0094 16.9283 12.1342C16.9257 12.1369 16.9232 12.1396 16.9206 12.1423C16.9105 12.1528 16.9004 12.1634 16.8902 12.1741C16.7567 12.3138 16.6121 12.4637 16.4585 12.6218C16.457 12.6233 16.4555 12.6248 16.454 12.6264C16.3552 12.728 16.2527 12.833 16.147 12.9409C16.1366 12.9514 16.1262 12.962 16.1158 12.9727C15.8418 13.252 15.5472 13.5495 15.2416 13.8556C14.8477 14.2502 14.4355 14.6591 14.0254 15.0617C13.6435 15.4366 13.2634 15.8061 12.9018 16.1536C12.7006 16.3382 12.5983 16.5141 12.5613 16.6757C12.4854 17.0068 12.6831 17.2777 12.8635 17.4398C13.2412 17.7747 13.8664 18.2423 14.5059 18.7006C14.5187 18.7097 14.5314 18.7189 14.5442 18.728C14.6102 18.7752 14.6763 18.8223 14.7422 18.8691C14.9396 19.0092 15.1356 19.1468 15.3234 19.2776C15.4819 19.388 15.6346 19.4937 15.7771 19.592L15.778 19.5926C15.9827 19.7336 16.1666 19.8596 16.3177 19.9631C16.549 20.1215 16.7033 20.2272 16.7366 20.2533C16.9283 20.4142 18.0021 21.1376 18.654 20.9768C19.3059 20.8161 19.3826 19.8916 19.3826 19.8916C19.3826 19.8916 19.61 18.3881 19.8994 16.4833C19.904 16.453 19.9086 16.4226 19.9132 16.3922C19.9223 16.3329 19.9314 16.2729 19.9405 16.2129C19.9925 15.871 20.0461 15.5183 20.1005 15.1607C20.1801 14.6382 20.2613 14.1054 20.3413 13.5811C20.356 13.4792 20.3706 13.3777 20.3853 13.2767C20.3988 13.1833 20.4123 13.0904 20.4258 12.9981C20.4823 12.6098 20.5381 12.231 20.5912 11.8697C20.6545 11.4392 20.7142 11.0334 20.7673 10.6662C20.7722 10.6324 20.777 10.599 20.7818 10.5659C20.8944 9.78419 20.9747 9.18903 20.9932 8.91864C21.1082 7.55207 19.7277 8.11476 19.7277 8.11476C19.7277 8.11476 19.1221 8.37516 18.3756 8.69825C18.3479 8.71023 18.32 8.72231 18.292 8.73445C17.5356 9.06194 16.6554 9.44478 16.1162 9.6852C16.0163 9.72975 15.9281 9.7694 15.8546 9.80291C15.8494 9.80516 15.8443 9.80742 15.8391 9.80969C15.5795 9.92305 15.2659 10.0594 14.9138 10.2122C14.8685 10.2319 14.8225 10.2518 14.776 10.272C14.7716 10.2739 14.7672 10.2758 14.7628 10.2777C14.054 10.5851 13.206 10.9518 12.3336 11.3285C11.6808 11.6103 11.0143 11.8978 10.3822 12.1703C10.1873 12.2543 9.99567 12.3369 9.80874 12.4175C9.72818 12.4522 9.64824 12.4866 9.56953 12.5206C9.53199 12.5367 9.49467 12.5528 9.45759 12.5688C9.43224 12.5797 9.407 12.5906 9.38188 12.6014C9.13753 12.7067 8.90396 12.8073 8.68478 12.9017C8.65995 12.9124 8.63531 12.923 8.61085 12.9335C7.95134 13.2176 7.42979 13.442 7.14869 13.563C7.00094 13.6266 6.91962 13.6615 6.91962 13.6615C6.83084 13.6979 6.75 13.734 6.67649 13.77C6.61218 13.8015 6.55349 13.8327 6.5 13.8638C5.53195 14.4256 6.26767 14.9076 6.26767 14.9076C6.26767 14.9076 6.35336 14.9383 6.5 14.9902C6.7436 15.0764 7.1554 15.2207 7.62196 15.3785C7.63605 15.3833 7.65019 15.3881 7.66437 15.3929C7.6829 15.3991 7.70155 15.4054 7.72024 15.4117C8.05684 15.5251 8.4171 15.6437 8.76031 15.7516ZM1.5 8C1.5 4.41015 4.41015 1.5 8 1.5H20C23.5899 1.5 26.5 4.41015 26.5 8V20C26.5 23.5899 23.5899 26.5 20 26.5H8C4.41015 26.5 1.5 23.5899 1.5 20V8ZM0 8C0 3.58172 3.58172 0 8 0H20C24.4183 0 28 3.58172 28 8V20C28 24.4183 24.4183 28 20 28H8C3.58172 28 0 24.4183 0 20V8Z"
    fill="black" />
</svg>