<svg width="425" height="425" viewBox="0 0 425 425" fill="none" xmlns="http://www.w3.org/2000/svg">
<path d="M425 212.5C425 329.861 329.861 425 212.5 425C95.1395 425 0 329.861 0 212.5C0 95.1395 95.1395 0 212.5 0C329.861 0 425 95.1395 425 212.5Z" fill="white"/>
<path d="M103 85H139V121H103V85Z" fill="#DCE7E9"/>
<path d="M103 130H139V166H103V130Z" fill="#DCE7E9"/>
<path d="M147 130H183V166H147V130Z" fill="#FFBB00"/>
<path d="M192 130H317V166H192V130Z" fill="#004564"/>
<path d="M103 222H139V258H103V222Z" fill="#DCE7E9"/>
<path d="M192 176H228V212H192V176Z" fill="#DCE7E9"/>
<path d="M192 222H228V258H192V222Z" fill="#7CD4EC"/>
<path d="M192 268H228V304H192V268Z" fill="#DCE7E9"/>
<path d="M281 176H317V212H281V176Z" fill="#DCE7E9"/>
<path d="M236 304H272V340H236V304Z" fill="#DCE7E9"/>
<path d="M281 304H317V340H281V304Z" fill="#DCE7E9"/>
<path d="M147 176H183V294H147V176Z" fill="#004564"/>
<path d="M237 166H273V294H237V166Z" fill="#004564"/>
</svg>
