<svg width="167" height="167" viewBox="0 0 167 167" fill="none" xmlns="http://www.w3.org/2000/svg">
<circle cx="83.5" cy="83.5" r="83.5" fill="#0165E5"/>
<path d="M51 84C51 89.5228 46.5228 94 41 94C35.4772 94 31 89.5228 31 84C31 78.4772 35.4772 74 41 74C46.5228 74 51 78.4772 51 84Z" fill="white"/>
<path d="M77 84C77 89.5228 72.5228 94 67 94C61.4772 94 57 89.5228 57 84C57 78.4772 61.4772 74 67 74C72.5228 74 77 78.4772 77 84Z" fill="white"/>
<path d="M87 84C87 78.4772 91.4772 74 97 74H127C132.523 74 137 78.4772 137 84V84C137 89.5228 132.523 94 127 94H97C91.4772 94 87 89.5228 87 84V84Z" fill="white"/>
</svg>
