<svg width="80" height="80" viewBox="0 0 80 80" fill="none" xmlns="http://www.w3.org/2000/svg">
<path fill-rule="evenodd" clip-rule="evenodd" d="M0 40V80H40H80V40V0H40H0V40Z" fill="white" style="fill:white;fill-opacity:1;"/>
<path d="M54.316 21H53.485C46.7756 21.5429 40.1825 23.0956 33.9207 25.6074C26.6253 28.3288 19.8676 32.3579 13.9674 37.5039C13.3044 38.0979 11.5362 39.9786 10.9881 40.5816C10.168 41.5449 9.41753 42.5674 8.74261 43.6412C8.46585 44.0769 8.21777 44.5309 8 45C8.31043 44.7484 8.60566 44.4779 8.88406 44.1901C11.2225 41.8465 13.801 39.7649 16.5754 37.9809C25.805 31.8436 38.0581 27.4702 48.3839 26.5883C49.673 26.4499 50.9688 26.3868 52.265 26.3993C53.561 26.3643 54.8578 26.4215 56.146 26.5703C58.8667 26.8045 61.5115 27.6038 63.9169 28.919C65.4116 29.745 66.619 31.0211 67.3736 32.5726C68.3991 34.8043 68.2576 37.387 66.8785 40.3116C66.7886 40.4726 66.7202 40.6451 66.6752 40.8245C67.2177 40.2516 67.7311 39.6509 68.2134 39.0247C70.0377 36.9096 71.306 34.3586 71.9 31.6097C72.0027 30.8766 72.0264 30.1343 71.9707 29.396C71.6878 26.6963 70.07 24.5366 67.241 23.0967C64.443 21.7837 61.4098 21.07 58.3296 21C57.7019 21 54.7934 21 54.316 21Z" fill="#FC121B" style="fill:#FC121B;fill:color(display-p3 0.9882 0.0706 0.1059);fill-opacity:1;"/>
<path d="M27.7618 36.0044L27.2445 36.0667C26.0665 36.2004 24.9134 36.4997 23.8196 36.9554C22.1147 37.6304 20.6603 38.8129 19.6544 40.3415C18.9846 41.4364 18.5956 42.6787 18.5216 43.9588C18.4503 45.8785 19.3511 47.2738 21.3044 48.2781C22.4314 48.8245 23.612 49.2533 24.8274 49.5579L26.3615 50.02C27.1731 50.1967 27.8944 50.657 28.3951 51.3176C28.5324 51.6812 28.5547 52.0779 28.459 52.4544C28.3634 52.831 28.1543 53.1693 27.8599 53.424C27.1942 54.0324 26.3434 54.4016 25.4428 54.4727C24.7857 54.5225 24.1252 54.5046 23.4717 54.4194C23.1147 54.3691 22.7745 54.236 22.4786 54.0306C22.1827 53.8253 21.9393 53.5536 21.7682 53.2373C21.5743 52.8213 21.5031 52.359 21.563 51.9042C21.563 51.5931 21.563 51.2821 21.563 51.2199V51.1043H18.8873H16.2116V51.3443C15.771 53.0422 16.0244 54.8449 16.9162 56.3568C17.2709 56.861 17.7045 57.3051 18.2006 57.6722C19.7636 58.6248 21.5796 59.0834 23.4093 58.9875C25.0951 59.0124 26.7718 58.7355 28.3594 58.1699C29.057 57.9017 29.7262 57.5652 30.3572 57.1656C31.3396 56.5045 32.1784 55.6532 32.8235 54.6622C33.4686 53.6712 33.9069 52.561 34.1122 51.3976C34.3602 50.3353 34.2537 49.2213 33.8089 48.2248C33.5958 47.7741 33.2923 47.3719 32.917 47.0427C31.9359 46.1095 30.6516 45.5319 27.7172 44.7231C25.648 44.1543 24.9166 43.8343 24.4617 43.3811C24.2763 43.203 24.1648 42.9618 24.1496 42.7056C24.1712 42.2668 24.326 41.8449 24.5936 41.4958C24.8612 41.1466 25.2289 40.8867 25.648 40.7504C26.5783 40.4352 27.5824 40.4074 28.5288 40.6704C28.8464 40.7474 29.1391 40.9036 29.3794 41.1244C29.6197 41.3452 29.7997 41.6232 29.9024 41.9324C29.964 42.2584 29.964 42.5929 29.9024 42.9189V43.15H35.2538V42.9367C35.5473 41.6738 35.4286 40.3505 34.9149 39.1595C34.6821 38.6632 34.355 38.2165 33.9516 37.8442C32.8709 36.8919 31.5229 36.2932 30.0897 36.1289C29.3181 36.0271 28.5398 35.9855 27.7618 36.0044ZM39.1336 36.4755C39.1336 36.4755 38.0277 41.4614 36.663 47.4693C35.2984 53.4773 34.1925 58.4632 34.1925 58.4632C34.1925 58.4632 36.7433 58.4632 39.8471 58.4632C46.0013 58.4632 45.6713 58.4632 46.8665 58.2499C48.3326 58.0493 49.713 57.4434 50.8512 56.5009C51.9894 55.5584 52.8398 54.3169 53.306 52.9174C53.5134 52.3398 53.6686 51.7449 53.7698 51.1399C53.8412 50.5227 53.8412 49.8995 53.7698 49.2824C53.6838 48.6563 53.4318 48.0645 53.0399 47.5677C52.648 47.071 52.1303 46.6873 51.5401 46.4562L51.3528 46.3762L51.5044 46.2962C51.8704 46.0955 52.2221 45.8699 52.5568 45.6207C53.0019 45.2705 53.4085 44.8743 53.7698 44.4387C54.4384 43.609 54.8863 42.6248 55.072 41.5769C55.509 38.9818 54.4744 37.3553 51.9236 36.6977C51.3688 36.5688 50.8054 36.4797 50.2379 36.431C49.8187 36.4488 39.1336 36.431 39.1336 36.4755ZM48.2668 40.9814C48.6087 41.0217 48.921 41.1943 49.1362 41.462C49.3515 41.7297 49.4525 42.0711 49.4173 42.4123C49.4228 43.0061 49.2293 43.5847 48.8674 44.0564C48.5055 44.5281 47.9959 44.866 47.4194 45.0164C46.5821 45.1502 45.7316 45.183 44.8864 45.1141H42.6299C42.6299 45.1141 42.8172 44.2254 43.0669 43.1233C43.3167 42.0213 43.5307 41.0881 43.5307 41.0348V40.937H45.7694C46.602 40.9013 47.436 40.9161 48.2668 40.9814ZM46.6346 48.8824C47.0068 48.8777 47.3712 48.9891 47.6767 49.2011C47.9821 49.4131 48.2134 49.715 48.3381 50.0645C48.4448 50.5025 48.4448 50.9596 48.3381 51.3976C48.241 51.9867 47.9621 52.531 47.5401 52.9547C47.118 53.3784 46.5739 53.6605 45.9835 53.7617C45.0483 53.8731 44.1047 53.8969 43.165 53.8328C42.3343 53.9078 41.4984 53.9078 40.6677 53.8328C40.6677 53.8328 40.9174 52.6952 41.2207 51.3354C41.5239 49.9756 41.7826 48.8736 41.7826 48.8736C41.7826 48.8736 46.4027 48.8647 46.6346 48.8824ZM58.6396 36.6266C58.6396 36.7243 57.5069 41.6569 56.1601 47.6204L53.7252 58.4632C53.7252 58.4632 54.9382 58.4632 56.401 58.4632H59.0767L61.5294 47.5227C62.8673 41.5058 64 36.5466 64 36.5288C64 36.511 63.8662 36.4755 61.3243 36.4755H58.6486L58.6396 36.6266Z" fill="#0A3E86" style="fill:#0A3E86;fill:color(display-p3 0.0392 0.2431 0.5255);fill-opacity:1;"/>
</svg>
