<svg width="120" height="120" viewBox="0 0 120 120" fill="none" xmlns="http://www.w3.org/2000/svg">
  <path fill-rule="evenodd" clip-rule="evenodd" d="M0 60V120H60H120V60V0H60H0V60Z" fill="white"
    style="fill:white;fill-opacity:1;" />
  <path
    d="M18.4063 41.0459C16.3975 41.4148 15.197 41.8312 13.7707 42.6523C11.0369 44.2349 8.95683 47.1026 8.23178 50.3154C7.92274 51.6362 7.92274 54.1351 8.23178 55.4321C9.25398 59.8349 12.4632 63.1786 16.8136 64.3804C17.8595 64.666 18.1923 64.7017 19.8326 64.7017C21.8414 64.7017 22.5664 64.5708 24.1948 63.9401C25.7044 63.3689 27.0118 62.4884 28.2718 61.2033C30.0309 59.4303 31.1244 57.336 31.5404 54.9561C31.8138 53.3378 31.7544 50.7914 31.4335 50.8747C31.3503 50.8985 30.7797 51.2793 30.1617 51.7433L29.0206 52.5763L28.9493 53.4925C28.6283 57.4669 25.954 60.6916 22.0791 61.7506C21.0212 62.0481 18.644 62.0481 17.5861 61.7506C15.8627 61.2747 14.3294 60.3584 13.1407 59.0733C10.8467 56.5863 10.1217 53.1118 11.2152 49.899C12.0829 47.3406 14.2818 45.1273 16.8254 44.2587C19.2621 43.4257 21.675 43.5923 23.9452 44.7347L25.0387 45.282L26.1798 44.4729L27.309 43.6518L26.9881 43.3781C26.0491 42.5809 24.2186 41.7122 22.6259 41.3196C21.7106 41.0816 19.0957 40.915 18.4063 41.0459Z"
    fill="black" style="fill:black;fill-opacity:1;" />
  <path
    d="M27.0833 47.1742C25.9423 48.0309 23.8384 49.5897 22.4121 50.6369L19.8328 52.5407L17.6458 51.1604C16.4453 50.3989 15.4231 49.7801 15.3874 49.7801C15.3399 49.7801 15.328 50.5417 15.3399 51.4698L15.3755 53.1595L17.6101 54.5636L19.8447 55.9677L25.0389 52.1481C27.8916 50.0419 30.3282 48.2213 30.4471 48.1142C30.6611 47.9119 30.6611 47.8881 30.4709 47.5074C30.1856 46.9481 29.306 45.6154 29.2228 45.6273C29.1872 45.6273 28.2244 46.3293 27.0833 47.1742Z"
    fill="black" style="fill:black;fill-opacity:1;" />
  <path
    d="M42.4738 45.8292C40.3699 46.3766 39.1338 47.5784 38.8485 49.3514C38.6346 50.6485 39.0268 51.8741 39.9064 52.6713C40.6909 53.3853 41.5823 53.7423 44.0784 54.361C46.0634 54.8608 46.729 55.2535 46.8716 56.0269C46.9667 56.5267 46.5983 57.1574 46.0277 57.443C45.6355 57.6571 45.3502 57.6928 44.0784 57.6928C42.3668 57.6928 41.404 57.4549 40.2511 56.7528L39.5617 56.3482L39.3121 56.8956C38.6821 58.3235 38.587 58.5972 38.6464 58.7519C38.7653 59.0375 40.1084 59.6562 41.3327 59.9775C42.7947 60.3702 45.1244 60.4178 46.3249 60.0846C47.8582 59.6681 48.9042 58.9304 49.4866 57.8594C49.7837 57.3121 49.8432 57.0503 49.8788 56.134C49.9383 54.8132 49.6768 54.0874 48.8685 53.3377C48.1553 52.6832 47.3471 52.3501 44.9699 51.7313C42.8066 51.1601 42.1885 50.8626 41.9389 50.2558C41.5704 49.3633 42.2955 48.4828 43.5911 48.2329C44.6489 48.0306 45.2551 48.0901 47.0143 48.5423C47.2163 48.6018 47.5373 48.4233 48.3574 47.8164C48.9398 47.3762 49.4272 46.9954 49.4272 46.9716C49.4272 46.8645 48.2148 46.329 47.2877 46.0315C45.9326 45.5913 43.7337 45.508 42.4738 45.8292Z"
    fill="black" style="fill:black;fill-opacity:1;" />
  <path
    d="M52.8752 53.0049V60.1563L57.2493 60.0968C60.827 60.0611 61.7303 60.0135 62.3009 59.8588C64.5236 59.2163 65.6171 57.836 65.4388 55.8845C65.3912 55.468 65.2605 54.8968 65.1416 54.6232C64.8445 53.9687 64.0125 53.1595 63.3706 52.9216L62.8595 52.7193L63.3231 52.3861C64.3334 51.6602 64.8326 50.5417 64.7375 49.2685C64.5949 47.555 63.4657 46.4721 61.3381 46.0319C60.7438 45.901 59.567 45.8534 56.7144 45.8534H52.8752V53.0049ZM60.7675 48.5426C61.9443 49.1495 61.9443 50.7678 60.7675 51.3746C60.3515 51.6007 60.0544 51.6245 58.0813 51.6602L55.8467 51.6959V49.9586V48.2094L58.0813 48.257C60.0425 48.2927 60.3634 48.3165 60.7675 48.5426ZM61.3619 54.3733C61.9799 54.6945 62.2771 55.111 62.3484 55.7417C62.4197 56.4675 62.1107 57.0149 61.4332 57.3957C60.9221 57.6813 60.8032 57.6932 58.3784 57.7289L55.8467 57.7765V55.9083V54.0401L58.3784 54.0877C60.6487 54.1234 60.9458 54.1472 61.3619 54.3733Z"
    fill="black" style="fill:black;fill-opacity:1;" />
  <path
    d="M68.3262 52.9927V60.1323L73.7106 60.1085L79.0831 60.0728L79.1187 58.9067L79.1544 57.7524H75.2795H71.4165V55.908V54.0637H74.6852H77.9539V52.8737V51.6838H74.6852H71.4165V49.9584V48.233H73.6511H75.8738L77.419 47.0907C78.2748 46.46 78.988 45.9245 79.0118 45.9007C79.0355 45.8769 76.6464 45.8531 73.6987 45.8531H68.3262V52.9927Z"
    fill="black" style="fill:black;fill-opacity:1;" />
  <path
    d="M81.9967 52.9927V60.1323H83.4824H84.9682V58.1094V56.0865H86.5491L88.118 56.0984L89.4612 58.1094L90.7924 60.1323H92.397C93.2766 60.1323 94.0016 60.0847 94.0016 60.0371C94.0016 59.9776 93.336 58.9543 92.5159 57.7524C91.6957 56.5506 91.0301 55.5273 91.0301 55.4916C91.0301 55.4559 91.2203 55.325 91.4461 55.2179C92.5515 54.6824 93.4905 53.3735 93.7639 51.9456C94.3226 49.1017 92.6229 46.6623 89.6632 46.0316C89.0451 45.9007 87.9635 45.8531 85.4199 45.8531H81.9967V52.9927ZM89.4849 48.59C89.7702 48.7566 90.1743 49.1254 90.3764 49.3991C90.6973 49.8751 90.733 50.006 90.733 50.8865C90.733 52.0527 90.4952 52.6238 89.8177 53.1117C89.1878 53.5758 88.4508 53.7067 86.5728 53.7067H84.9682V50.9579V48.2092L86.9651 48.2568C88.8193 48.2925 88.9857 48.3163 89.4849 48.59Z"
    fill="black" style="fill:black;fill-opacity:1;" />
  <path
    d="M85.0984 66.1945C82.865 66.786 81.3327 68.29 80.8019 70.4055C80.6016 71.1875 80.5715 72.8118 80.7518 73.664C80.9721 74.6967 81.563 75.7896 82.2841 76.4814C83.506 77.6544 84.7078 78.1257 86.6707 78.1959C88.5135 78.266 90.0058 77.875 90.9572 77.0829L91.2777 76.8022V75.559V74.3157L90.6868 74.9073C89.7053 75.8898 88.3232 76.3811 86.821 76.2909C85.0483 76.1806 83.7664 75.2883 83.1554 73.7442C82.835 72.9321 82.8249 71.3179 83.1354 70.4857C83.7463 68.8414 85.1785 67.8989 87.0713 67.8989C88.4534 67.8989 89.8756 68.5306 90.7269 69.5332L91.0774 69.9443V68.4704V67.0066L90.6568 66.756C89.7654 66.2446 88.9442 66.0641 87.3217 66.024C86.0698 66.004 85.6993 66.024 85.0984 66.1945Z"
    fill="#3769E9" style="fill:#3769E9;fill:color(display-p3 0.2157 0.4118 0.9137);fill-opacity:1;" />
  <path
    d="M106.733 66.1442C105.641 66.4449 104.8 67.0465 104.369 67.8486C104.179 68.1895 104.149 68.4101 104.149 69.3525C104.149 70.305 104.179 70.5156 104.369 70.8765C104.93 71.9092 105.822 72.4206 108.085 73.0021C110.469 73.6137 110.969 73.9646 110.879 74.9171C110.749 76.1102 109.016 76.6516 106.963 76.1202C105.962 75.8696 105.281 75.4986 104.63 74.8469L104.099 74.3255V75.6089V76.8822L104.66 77.2532C105.571 77.8447 106.633 78.1455 108.105 78.1957C110.439 78.2859 111.911 77.6743 112.662 76.3007C112.912 75.8495 112.962 75.629 112.992 74.8569C113.093 72.6913 112.221 71.829 109.137 71.0169C107.254 70.5156 106.873 70.3652 106.503 69.9441C105.982 69.3425 106.162 68.5805 106.933 68.1795C107.304 67.979 107.504 67.9489 108.556 67.9489C109.737 67.9489 109.768 67.9589 110.539 68.3198C111.079 68.5805 111.51 68.8813 111.921 69.2924L112.522 69.894L112.492 68.4201L112.462 66.9463L111.841 66.6354C111.5 66.465 110.879 66.2545 110.459 66.1642C109.517 65.9537 107.474 65.9436 106.733 66.1442Z"
    fill="#3769E9" style="fill:#3769E9;fill:color(display-p3 0.2157 0.4118 0.9137);fill-opacity:1;" />
  <path
    d="M40 72.0697V78.0453L42.9344 78.0052C46.1693 77.955 46.4698 77.9149 47.7617 77.2733C49.1137 76.6115 50.1353 75.258 50.4658 73.6638C50.636 72.8718 50.6661 71.1773 50.5259 70.4454C50.0452 67.9389 48.2925 66.5051 45.318 66.2043C44.7472 66.1442 43.325 66.094 42.1432 66.094H40V72.0697ZM46.2594 68.4001C46.6801 68.5605 47.0306 68.8011 47.4312 69.1921C47.9119 69.6734 48.0221 69.8639 48.2124 70.4855C48.4027 71.1071 48.4327 71.3879 48.3927 72.2902C48.3526 73.1926 48.3025 73.4633 48.0722 73.9646C47.7216 74.7366 47.1308 75.3382 46.4097 75.659C45.5984 76.02 44.9775 76.1202 43.4452 76.1202H42.1032V72.0997V68.0792L43.8859 68.1193C45.4382 68.1594 45.7286 68.1895 46.2594 68.4001Z"
    fill="#3769E9" style="fill:#3769E9;fill:color(display-p3 0.2157 0.4118 0.9137);fill-opacity:1;" />
  <path
    d="M52.9159 72.0597V78.0253H57.1222H61.3286V77.0728V76.1204H58.1738H55.019V74.5162V72.912H57.7732H60.5274V71.9595V71.007L57.8032 70.9869L55.0691 70.9569L55.0391 69.5231L55.009 68.0994H58.0737H61.1283V67.0968V66.0942H57.0221H52.9159V72.0597Z"
    fill="#3769E9" style="fill:#3769E9;fill:color(display-p3 0.2157 0.4118 0.9137);fill-opacity:1;" />
  <path
    d="M62.6339 66.1242C62.6339 66.1442 63.7256 68.8212 65.0676 72.0697L67.4913 77.9751H68.5829H69.6746L72.0181 72.2101C73.3 69.0418 74.3817 66.3648 74.4117 66.2645C74.4618 66.1041 74.3817 66.0941 73.3902 66.1141L72.3186 66.1442L70.5058 70.7262C69.5043 73.2428 68.663 75.3282 68.643 75.3583C68.613 75.3784 67.7617 73.3029 66.7401 70.7462L64.8873 66.0941H63.7657C63.1447 66.0941 62.6339 66.1041 62.6339 66.1242Z"
    fill="#3769E9" style="fill:#3769E9;fill:color(display-p3 0.2157 0.4118 0.9137);fill-opacity:1;" />
  <path d="M76.1549 72.0597V78.0253H77.2065H78.2581V72.0597V66.0942H77.2065H76.1549V72.0597Z"
    fill="#3769E9" style="fill:#3769E9;fill:color(display-p3 0.2157 0.4118 0.9137);fill-opacity:1;" />
  <path
    d="M93.5814 72.0597V78.0253H97.7878H101.994V77.0728V76.1204L98.8193 76.1003L95.6345 76.0702L95.6045 74.4861L95.5744 72.912H98.3386H101.093V71.9595V71.007L98.3687 70.9869L95.6345 70.9569L95.6045 69.5231L95.5744 68.0994H98.6891H101.794V67.0968V66.0942H97.6876H93.5814V72.0597Z"
    fill="#3769E9" style="fill:#3769E9;fill:color(display-p3 0.2157 0.4118 0.9137);fill-opacity:1;" />
</svg>