<svg width="80" height="80" viewBox="0 0 80 80" fill="none" xmlns="http://www.w3.org/2000/svg">
  <path fill-rule="evenodd" clip-rule="evenodd" d="M0 40V80H40H80V40V0H40H0V40Z" fill="white"
    style="fill:white;fill-opacity:1;" />
  <path
    d="M9 35.2009H12.1698V38.9666H13.1535L14.9707 35.2009H18.1268V35.804L15.9681 39.7707L18.4411 43.8178V44.4208H15.121L13.0989 40.7623H12.1698V44.4208H9V35.2009Z"
    fill="#181818" style="fill:#181818;fill:color(display-p3 0.0941 0.0941 0.0941);fill-opacity:1;" />
  <path
    d="M23.7174 44.6353C22.7337 44.6353 21.8592 44.4298 21.0941 44.0189C20.3381 43.6079 19.746 43.0406 19.3179 42.3169C18.8989 41.5843 18.6895 40.7535 18.6895 39.8243C18.6895 38.8863 18.8989 38.051 19.3179 37.3184C19.746 36.5858 20.3381 36.0185 21.0941 35.6164C21.8592 35.2055 22.7337 35 23.7174 35C24.7011 35 25.571 35.2055 26.3271 35.6164C27.0922 36.0185 27.6842 36.5858 28.1032 37.3184C28.5313 38.042 28.7454 38.8773 28.7454 39.8243C28.7454 40.7535 28.5313 41.5843 28.1032 42.3169C27.6842 43.0406 27.0922 43.6079 26.3271 44.0189C25.5619 44.4298 24.692 44.6353 23.7174 44.6353ZM23.7174 42.1963C24.2913 42.1963 24.7604 41.9774 25.1247 41.5397C25.4981 41.1019 25.6849 40.5257 25.6849 39.8109C25.6849 39.3374 25.5983 38.9175 25.4253 38.5513C25.2613 38.176 25.029 37.8857 24.7285 37.6802C24.4279 37.4658 24.0863 37.3586 23.7037 37.3586C23.3303 37.3586 22.9932 37.4658 22.6927 37.6802C22.3921 37.8857 22.1598 38.176 21.9958 38.5513C21.8319 38.9175 21.7499 39.3374 21.7499 39.8109C21.7499 40.5257 21.9321 41.1019 22.2965 41.5397C22.6608 41.9774 23.1344 42.1963 23.7174 42.1963Z"
    fill="#181818" style="fill:#181818;fill:color(display-p3 0.0941 0.0941 0.0941);fill-opacity:1;" />
  <path d="M31.25 37.2379H29.2961V35.2009H36.3872V37.2379H34.4334V44.4208H31.25V37.2379Z"
    fill="#181818" style="fill:#181818;fill:color(display-p3 0.0941 0.0941 0.0941);fill-opacity:1;" />
  <path
    d="M37.6736 35.2009H44.2728V37.2379H40.9937V38.913H43.9859V40.6015H40.9937V42.3838H44.2728V44.4208H37.6736V35.2009Z"
    fill="#181818" style="fill:#181818;fill:color(display-p3 0.0941 0.0941 0.0941);fill-opacity:1;" />
  <path d="M45.7993 35.2009H48.7505V42.3838H52.0159V44.4208H45.7993V35.2009Z" fill="#181818"
    style="fill:#181818;fill:color(display-p3 0.0941 0.0941 0.0941);fill-opacity:1;" />
  <path
    d="M57.4743 44.6353C56.4906 44.6353 55.6162 44.4298 54.851 44.0189C54.095 43.6079 53.5029 43.0406 53.0748 42.3169C52.6558 41.5843 52.4463 40.7535 52.4463 39.8243C52.4463 38.8863 52.6558 38.051 53.0748 37.3184C53.5029 36.5858 54.095 36.0185 54.851 35.6164C55.6162 35.2055 56.4906 35 57.4743 35C58.458 35 59.3279 35.2055 60.084 35.6164C60.8491 36.0185 61.4411 36.5858 61.8601 37.3184C62.2882 38.042 62.5023 38.8773 62.5023 39.8243C62.5023 40.7535 62.2882 41.5843 61.8601 42.3169C61.4411 43.0406 60.8491 43.6079 60.084 44.0189C59.3188 44.4298 58.4489 44.6353 57.4743 44.6353ZM57.4743 42.1963C58.0482 42.1963 58.5173 41.9774 58.8816 41.5397C59.255 41.1019 59.4417 40.5257 59.4417 39.8109C59.4417 39.3374 59.3552 38.9175 59.1822 38.5513C59.0182 38.176 58.7859 37.8857 58.4854 37.6802C58.1848 37.4658 57.8432 37.3586 57.4606 37.3586C57.0872 37.3586 56.7502 37.4658 56.4496 37.6802C56.149 37.8857 55.9167 38.176 55.7528 38.5513C55.5888 38.9175 55.5068 39.3374 55.5068 39.8109C55.5068 40.5257 55.689 41.1019 56.0534 41.5397C56.4177 41.9774 56.8913 42.1963 57.4743 42.1963Z"
    fill="#181818" style="fill:#181818;fill:color(display-p3 0.0941 0.0941 0.0941);fill-opacity:1;" />
  <path
    d="M62.7913 35.2009H65.8791L67.3273 40.9499L68.7756 35.2009H72.0001L69.0626 44.4208H65.5785L62.7913 35.2009Z"
    fill="#181818" style="fill:#181818;fill:color(display-p3 0.0941 0.0941 0.0941);fill-opacity:1;" />
</svg>