<svg width="96" height="96" viewBox="0 0 96 96" fill="none" xmlns="http://www.w3.org/2000/svg">
  <g clip-path="url(#clip0_1210_376)">
    <path fill-rule="evenodd" clip-rule="evenodd"
      d="M62.64 0C35.76 0 60 0 33.12 0C6.48 0 0 6.48 0 33.36C0 48.48 0 36 0 62.88C0 89.52 6.48 96 33.36 96C60.24 96 36 96 62.88 96C89.76 96 96 89.52 96 62.64C96 35.76 96 60 96 33.12C96 6.24 89.52 0 62.64 0Z"
      fill="#3D3BFF" />
    <path
      d="M63.2 58.7791C63.2 66.4425 56.9769 72 47.092 72C41.3603 71.8442 35.9285 69.4534 32 65.3574L35.3059 61.772C38.4001 64.6611 42.0408 67.4691 47.0266 67.4691C52.5646 67.4691 58.5356 64.4233 58.5356 58.9546C58.5356 54.4123 54.8545 51.4496 47.1189 49.1134C38.3039 46.4715 33.8261 42.886 33.8261 36.1453C33.8261 29.4744 39.5835 24 47.7867 24C53.9135 24 57.7466 26.5608 61.4778 29.833L58.2277 33.3713C54.9565 30.5293 51.8392 28.6026 48.0137 28.6026C43.2685 28.6026 38.5848 31.6031 38.5848 35.9226C38.5848 39.8365 40.8785 42.3293 48.9758 44.7599C56.392 46.9998 63.2 50.4702 63.2 58.7772L63.2 58.7791Z"
      fill="white" />
  </g>
  <defs>
    <clipPath id="clip0_1210_376">
      <rect width="96" height="96" fill="white" />
    </clipPath>
  </defs>
</svg>