<svg width="25" height="24" viewBox="0 0 25 24" fill="none" xmlns="http://www.w3.org/2000/svg">
<path d="M15.2356 11.9971L10.7824 14.5693V9.42486L15.2356 11.9971Z" fill="#F7F7F5"/>
<path fill-rule="evenodd" clip-rule="evenodd" d="M0.5 6.85714C0.5 3.07005 3.57005 0 7.35714 0H17.6429C21.4299 0 24.5 3.07005 24.5 6.85714V17.1429C24.5 20.9299 21.4299 24 17.6429 24H7.35714C3.57005 24 0.5 20.9299 0.5 17.1429V6.85714ZM20.7146 16.1252C20.6161 16.4893 20.4236 16.8211 20.1564 17.0873C19.8892 17.3534 19.5568 17.5445 19.1925 17.6414C17.8553 18 12.4965 18 12.4965 18C12.4965 18 7.13624 18 5.80182 17.6414C5.43869 17.5437 5.10759 17.3522 4.84172 17.0861C4.57582 16.82 4.38448 16.4886 4.28686 16.1252C3.92857 14.7882 3.92857 11.9972 3.92857 11.9972C3.92857 11.9972 3.92857 9.20611 4.28686 7.86918C4.38448 7.50574 4.57582 7.17436 4.84172 6.90826C5.10759 6.64214 5.43869 6.45064 5.80182 6.35294C7.13765 6 12.4965 6 12.4965 6C12.4965 6 17.8567 6 19.1925 6.35859C19.5562 6.45498 19.8881 6.64524 20.1552 6.91032C20.4223 7.17542 20.6152 7.50607 20.7146 7.86918C21.0714 9.20611 21.0714 11.9972 21.0714 11.9972C21.0714 11.9972 21.0644 14.7882 20.7146 16.1252Z" fill="#F7F7F5"/>
</svg>
