<svg width="100" height="100" viewBox="0 0 100 100" fill="none" xmlns="http://www.w3.org/2000/svg">
  <path fill-rule="evenodd" clip-rule="evenodd" d="M0 50V100H50H100V50V0H50H0V50Z" fill="#FFDD2D"
    style="fill:#FFDD2D;fill:color(display-p3 1.0000 0.8667 0.1765);fill-opacity:1;" />
  <path
    d="M25 25H75V50.1464C75 56.5928 71.561 62.5497 65.9786 65.7733L50 75L34.0215 65.7733C28.4389 62.5497 25 56.5928 25 50.1464V25Z"
    fill="white" style="fill:white;fill-opacity:1;" />
  <path fill-rule="evenodd" clip-rule="evenodd"
    d="M39 38V45.5975C40.0432 44.4243 41.9398 43.6303 44.1084 43.6303H46.465V52.4623C46.465 54.812 45.8239 56.8687 44.8728 58H55.1236C54.1745 56.8676 53.5349 54.8135 53.5349 52.4668V43.6303H55.8917C58.0602 43.6303 59.9568 44.4243 61 45.5975V38H39Z"
    fill="#333333" style="fill:#333333;fill:color(display-p3 0.2000 0.2000 0.2000);fill-opacity:1;" />
</svg>