<svg width="80" height="80" viewBox="0 0 80 80" fill="none" xmlns="http://www.w3.org/2000/svg">
  <path fill-rule="evenodd" clip-rule="evenodd" d="M0 40V80H40H80V40V0H40H0V40Z" fill="white"
    style="fill:white;fill-opacity:1;" />
  <path
    d="M39.2469 12.8076C31.111 13.7857 24.3416 14.5781 24.2278 14.5905C24.0127 14.5905 24 14.9 24 19.2952C24 23.9629 24 24 24.2657 24C24.4049 24 31.3514 23.381 39.7024 22.6381C48.0661 21.8829 54.9241 21.2762 54.9494 21.2762C54.9747 21.2762 55 18.961 55 16.1381V11L54.5318 11.0124C54.2661 11.0248 47.3955 11.8295 39.2469 12.8076Z"
    fill="#E40038" style="fill:#E40038;fill:color(display-p3 0.8941 0.0000 0.2196);fill-opacity:1;" />
  <path
    d="M41.1011 30.1077C39.9056 30.3101 38.4963 30.778 37.2631 31.3598C35.7279 32.1061 34.8596 32.6499 33.7648 33.5732L32.9343 34.2942V32.4476V30.6136H28.4672H24L24.0252 49.8005L24.0629 69H28.4672H32.8714L32.9092 62.2587L32.9343 55.5173L33.8026 56.2509C35.451 57.6422 37.5022 58.7046 39.8553 59.3623C40.6732 59.59 41.1388 59.6279 43.3158 59.6279C45.5053 59.6279 45.9835 59.59 46.9398 59.3497C49.3181 58.7552 51.0043 57.8446 52.4137 56.4153C54.8926 53.8984 56 50.3064 56 44.7793C56 40.8331 55.547 38.468 54.3264 35.989C52.6528 32.574 49.8718 30.7022 45.606 30.1204C44.4986 29.9686 41.9819 29.9559 41.1011 30.1077ZM43.127 37.6332C45.0146 38.2277 45.908 39.1889 46.4868 41.2505C46.7762 42.3129 46.814 47.0938 46.5372 48.1942C45.7696 51.2297 44.0456 52.2795 39.8553 52.2795C34.8974 52.2668 33.2489 50.6858 32.9847 45.7026C32.8462 43.0718 33.2489 40.7193 34.0543 39.4419C34.6834 38.4427 35.9166 37.7344 37.5022 37.4435C38.5843 37.2538 42.3217 37.3802 43.127 37.6332Z"
    fill="#00234D" style="fill:#00234D;fill:color(display-p3 0.0000 0.1373 0.3020);fill-opacity:1;" />
</svg>