<svg width="25" height="24" viewBox="0 0 25 24" fill="none" xmlns="http://www.w3.org/2000/svg">
<path fill-rule="evenodd" clip-rule="evenodd" d="M7.35714 0C3.57005 0 0.5 3.07005 0.5 6.85714V17.1429C0.5 20.9299 3.57005 24 7.35714 24H17.6429C21.4299 24 24.5 20.9299 24.5 17.1429V6.85714C24.5 3.07005 21.4299 0 17.6429 0H7.35714ZM17.4095 6.95551C17.4095 6.95551 14.8457 8.058 14.0896 8.4025C12.1175 9.26382 6.4311 11.7099 6.4311 11.7099C5.08347 12.2611 5.87229 12.7779 5.87229 12.7779C5.87229 12.7779 7.02271 13.1913 8.00884 13.5014C8.99489 13.8114 9.52082 13.4669 9.52082 13.4669C9.52082 13.4669 11.8217 11.8822 14.1554 10.194C15.7989 9.02264 15.4044 9.98729 15.01 10.4007C14.1554 11.2965 12.742 12.709 11.5587 13.8459C11.0328 14.3283 11.2958 14.7417 11.5259 14.9484C12.195 15.5418 13.7708 16.621 14.4865 17.1111C14.6848 17.247 14.8171 17.3376 14.8457 17.36C15.01 17.4979 15.9304 18.118 16.4891 17.9802C17.0479 17.8424 17.1136 17.0499 17.1136 17.0499C17.1136 17.0499 17.5409 14.2249 17.9354 11.641C18.0085 11.1335 18.0816 10.6367 18.1497 10.1735C18.3267 8.96984 18.4704 7.99284 18.4942 7.64455C18.5928 6.47321 17.4095 6.95551 17.4095 6.95551Z" fill="#F7F7F5"/>
</svg>
