<svg width="28" height="28" viewBox="0 0 28 28" fill="none" xmlns="http://www.w3.org/2000/svg">
  <path
    d="M14.7145 19C9.24792 19 6.12991 15.2462 6 9H8.73828C8.82825 13.5846 10.8469 15.5265 12.4459 15.9269V9H15.0244V12.954C16.6034 12.7838 18.2622 10.9819 18.8218 9H21.4003C20.9706 11.4424 19.1717 13.2443 17.8925 13.985C19.1717 14.5856 21.2205 16.1571 22 19H19.1617C18.5521 17.0981 17.0331 15.6266 15.0244 15.4264V19H14.7145Z"
    fill="currentColor" />
  <path fill-rule="evenodd" clip-rule="evenodd"
    d="M0 8C0 3.58173 3.58173 0 8 0H20C24.4183 0 28 3.58173 28 8V20C28 24.4183 24.4183 28 20 28H8C3.58173 28 0 24.4183 0 20V8ZM8 1.5H20C23.5898 1.5 26.5 4.41016 26.5 8V20C26.5 23.5898 23.5898 26.5 20 26.5H8C4.41016 26.5 1.5 23.5898 1.5 20V8C1.5 4.41016 4.41016 1.5 8 1.5Z"
    fill="currentColor" />
</svg>