<svg width="80" height="80" viewBox="0 0 80 80" fill="none" xmlns="http://www.w3.org/2000/svg">
<path fill-rule="evenodd" clip-rule="evenodd" d="M0 40V80H40H80V40V0H40H0V40Z" fill="white" style="fill:white;fill-opacity:1;"/>
<path d="M36.1719 65.7301C33.7619 65.3876 29.7327 64.0272 27.4851 62.7972C20.758 59.1171 16.0126 52.6565 14.3934 44.973C13.8703 42.4939 13.8686 37.4927 14.3899 35.0215C16.168 26.5838 21.8217 19.5362 29.4553 16.2415C35.4759 13.6433 41.6659 13.3017 47.7891 15.228C52.3151 16.6524 55.5316 18.676 58.9526 22.251C63.6269 27.1365 66 33.1074 66 39.9894C66 46.8713 63.6269 52.8405 58.9526 57.7278C55.5386 61.2949 52.3142 63.3255 47.8154 64.742C43.8933 65.9763 40.1379 66.2952 36.1719 65.7301ZM45.9452 64.36C52.9399 62.7403 59.2975 57.6761 62.6395 51.0622C63.0292 50.2913 63.705 48.5883 64.1421 47.2778C64.8924 45.0264 64.9363 44.6252 64.9363 39.9894C64.9363 35.3535 64.8924 34.9523 64.1421 32.701C61.7514 25.5264 57.0288 20.1941 50.3325 17.1062C44.5664 14.4466 37.2522 14.2048 31.1167 16.4702C23.8534 19.1508 17.8267 25.7533 15.6063 33.4631C15.0762 35.3018 14.9779 36.3268 14.9779 39.9894C14.9779 43.6511 15.0762 44.676 15.6063 46.5157C17.0263 51.4441 20.385 56.5355 24.1615 59.4842C30.6331 64.5388 38.0272 66.1944 45.9452 64.36ZM37.383 59.0663C32.4849 58.2937 27.5755 55.5579 26.4925 52.9964C26.2906 52.519 25.6754 51.8506 25.1251 51.5107C23.8157 50.703 22.9723 49.3058 22.9723 47.9444C22.9723 47.0886 22.7845 46.6786 22.0955 46.0295C21.2846 45.2656 21.231 45.0992 21.3671 43.7825C21.468 42.8049 21.3908 42.1917 21.1196 41.822C20.163 40.5159 21.1205 37.7389 23.0284 36.2891C25.9948 34.0351 31.782 32.2402 41.7887 30.4724C43.5651 30.1588 45.3976 29.7908 45.8609 29.6542C47.5451 29.1575 45.6819 28.9166 40.2441 28.9253C35.6664 28.9332 34.5483 29.0234 32.3805 29.5648C28.9823 30.4128 27.2463 31.0777 24.1781 32.708C21.8945 33.9212 21.6198 34.0088 21.8173 33.4613C22.3114 32.0974 27.9265 29.3607 32.7289 28.1439C34.8686 27.6008 35.8823 27.522 40.5249 27.5439C43.4597 27.557 46.4797 27.7015 47.2362 27.8636C48.5219 28.1396 48.6562 28.1133 49.3065 27.4641C49.6892 27.0831 49.8919 26.6687 49.7568 26.5443C49.1073 25.946 45.5555 25.3547 41.7545 25.2128C38.5862 25.0937 36.9819 25.169 34.7361 25.5439C31.1685 26.1396 27.6185 27.1462 25.7473 28.0922C24.3844 28.7817 24.3519 28.7843 24.6635 28.2026C25.3375 26.9473 30.6972 25.0507 36.1429 24.1423C39.5815 23.5676 44.1531 23.685 47.3547 24.4279C48.486 24.6907 49.4759 24.8396 49.5558 24.7608C49.8077 24.5094 48.3482 23.7096 46.2252 22.9369C44.2873 22.2317 43.9073 22.1923 39.2611 22.2098C34.8317 22.2256 34.1173 22.2974 32.0294 22.9369C30.7551 23.3267 29.7125 23.6044 29.7125 23.5536C29.7125 23.3206 32.011 22.3298 33.7882 21.7963C40.7637 19.7009 49.2398 21.2585 51.8253 25.1094C52.179 25.6368 52.8776 26.3113 53.377 26.6092C54.9673 27.5553 56.0959 28.8255 56.2846 29.8793C56.3829 30.4295 56.8261 31.2398 57.2684 31.6813C58.3058 32.715 58.8262 34.3514 58.3813 35.1809C58.1145 35.6776 58.1654 35.9256 58.6726 36.6106C59.7741 38.0981 59.2765 39.9675 57.3237 41.6783C55.9151 42.9135 52.308 44.5718 49.4566 45.2963C47.5153 45.7886 38.0342 47.5389 37.1548 47.566C37.0004 47.5713 37.089 47.7 37.3523 47.8533C37.6156 48.0066 39.1629 48.2808 40.79 48.4622C45.7486 49.0149 51.4875 48.0881 56.7436 45.8841C57.7862 45.4469 58.6393 45.1938 58.6393 45.3225C58.6393 46.1442 54.4073 47.9479 50.0736 48.972C44.8446 50.2072 40.3064 50.2063 35.2767 48.9668C33.6294 48.5612 32.8808 48.499 32.126 48.7075C30.6296 49.1192 30.6788 49.4214 32.3445 50.0434C38.8934 52.4892 46.4472 52.561 54.4319 50.2519C57.0683 49.4897 57.3228 49.8883 54.8356 50.8835C47.6961 53.7393 38.4485 53.9267 31.5906 51.353C29.2842 50.4875 28.9656 50.4297 28.5891 50.8099C28.2144 51.1892 28.2275 51.2812 28.7137 51.6403C29.4668 52.1975 33.3301 53.6604 35.8823 54.3551C37.5901 54.8194 38.8618 54.9333 42.4908 54.9429C46.8509 54.9552 48.2349 54.7765 53.0224 53.579C53.7052 53.4081 53.7096 53.4151 53.1681 53.8523C52.4923 54.398 49.031 55.5141 46.5508 55.9871C44.0557 56.4628 38.9628 56.4654 36.5931 55.9932C34.6904 55.6139 32.1743 54.8282 29.8529 53.8864L28.7295 53.4309L29.7125 54.2982C31.2984 55.6963 35.0424 57.3633 37.6419 57.8285C40.202 58.2875 43.9784 58.1526 46.7763 57.5044C47.6601 57.2985 48.421 57.168 48.4666 57.2135C48.5886 57.3362 45.7539 58.4198 44.4559 58.7466C42.8147 59.1618 39.061 59.3309 37.383 59.0663ZM26.6232 49.5134C26.6232 49.1866 25.5025 48.5831 25.2892 48.7951C25.0558 49.029 26.0905 50.0959 26.3792 49.9172C26.5135 49.8349 26.6232 49.6527 26.6232 49.5134ZM29.1508 47.707L29.8529 47.3155L28.5215 46.7242C27.4596 46.252 27.0726 46.1968 26.6022 46.4473C25.9545 46.7934 25.9843 46.8599 27.1121 47.5818C28.0617 48.1897 28.2635 48.202 29.1508 47.707ZM33.4819 46.1653C33.8769 46.0146 37.2022 45.326 40.8716 44.634C50.6783 42.7856 54.9015 41.3963 56.3636 39.5409C56.9253 38.8278 57.1227 38.0087 56.8085 37.6951C56.7287 37.6154 55.5597 38.0963 54.2108 38.7638C51.2856 40.2119 47.1774 41.2911 39.506 42.627C33.7715 43.6257 29.4308 44.6611 29.4308 45.0308C29.4308 45.256 31.8583 46.3746 32.4323 46.4141C32.6148 46.4263 33.0879 46.3151 33.4819 46.1653ZM24.6573 45.0282C24.6573 44.7014 23.5366 44.0979 23.3233 44.3099C23.0899 44.5438 24.1246 45.6107 24.4133 45.432C24.5476 45.3497 24.6573 45.1684 24.6573 45.0291V45.0282ZM27.7615 43.0651C29.429 42.2153 33.46 41.2237 39.1207 40.2679C41.9011 39.7993 45.7556 39.031 47.6864 38.5615C51.3681 37.6653 55.0919 36.1787 54.8067 35.7171C54.7136 35.5681 54.2213 35.2729 53.7105 35.0601C52.8548 34.7026 52.559 34.7447 49.884 35.6137C48.2885 36.1305 45.7837 36.7683 44.3163 37.0302C37.5936 38.2277 32.7491 39.2343 30.555 39.8895C28.1275 40.614 24.9382 42.1198 24.9382 42.5421C24.9382 42.726 26.2134 43.574 26.5635 43.6222C26.6083 43.6283 27.1472 43.3769 27.7615 43.0651ZM26.3029 38.9539C28.6655 37.9071 32.1076 36.9995 37.799 35.922C45.3335 34.495 48.6369 33.7898 48.894 33.5524C49.1951 33.2747 46.2559 32.701 44.5313 32.701C42.1916 32.701 37.0723 33.5498 32.6017 34.6781C26.087 36.3233 22.6914 38.1401 22.6914 39.9806C22.6914 41.0975 22.9521 41.1772 23.9236 40.3573C24.4046 39.9526 25.4753 39.3201 26.3029 38.9539ZM56.2802 33.4149C56.081 32.6239 55.5167 32.4863 55.0033 33.1022C54.7329 33.428 54.819 33.5822 55.4605 33.9186C56.4083 34.4153 56.5154 34.3487 56.2802 33.4149ZM52.6784 31.9844C53.0224 31.7443 53.3033 31.4404 53.3033 31.309C53.3033 31.1776 52.5432 30.814 51.6156 30.5013L49.9279 29.9319L48.78 30.5836L47.632 31.2345L49.4145 31.7978C51.6524 32.5056 51.9114 32.5205 52.6784 31.9844ZM53.865 29.3896C53.865 29.2644 53.4902 28.8027 53.0321 28.3647C52.3273 27.691 52.1325 27.6253 51.7595 27.9346C51.1434 28.4444 51.3523 28.8202 52.4774 29.2258C53.6675 29.6551 53.865 29.6787 53.865 29.3896Z" fill="#00457C" style="fill:#00457C;fill:color(display-p3 0.0000 0.2706 0.4863);fill-opacity:1;"/>
</svg>
