<svg width="285" height="285" viewBox="0 0 285 285" fill="none" xmlns="http://www.w3.org/2000/svg">
<path d="M285 142.5C285 221.201 221.201 285 142.5 285C63.7994 285 0 221.201 0 142.5C0 63.7994 63.7994 0 142.5 0C221.201 0 285 63.7994 285 142.5Z" fill="#3BF8B3"/>
<path d="M150.5 52H115.5V100.5C115.5 100.5 137 96.4826 145 82C150.618 71.8287 150.5 52 150.5 52Z" fill="black"/>
<path d="M192.5 89.5L92 105V130L113 127V139.5L92 143.5V167L113 164V183.914C113 194.242 114.265 204.76 119.774 213.497C124.531 221.042 131.947 229.422 142.5 232.5C154.5 236 187 229 187 229V197C187 197 157.937 206.299 151.5 196C144 184 149 158.5 149 158.5L192.5 151.5V128.5L149 135V122.5L192.5 115V89.5Z" fill="black"/>
</svg>
